# xmcd
#
# Track frame offsets: 
#        150
#        11324
#        27351
#        38925
#        50865
#        64341
#        72934
#        84699
#        95943
#        106263
#        118810
#        126246
#        138656
#        156532
#        174334
#        194836
#        210503
#        228977
#        244488
#        258812
#        268675
#        282782
#        300082
#        316213
#
# Disc length: 4418 seconds
#
# Revision: 0
# Processed by: cddbd v1.5.2PL0 Copyright (c) Steve Scherf et al.
# Submitted via: ExactAudioCopy v0.99pb5
#
DISCID=67114018
DTITLE=Various Artist - The Blues Box [CD 6 of 7)
DYEAR=2009
DGENRE=Blues
TTITLE0=Memphis Slim - El Capitan
TTITLE1=Memphis Slim - This Is A Good Time To Write A Song
TTITLE2=Memphis Slim - I'm So Alone
TTITLE3=Memphis Slim - True Love
TTITLE4=Memphis Slim - Two Of A Kind
TTITLE5=Memphis Slim - Big City Girl
TTITLE6=Memphis Slim - The Question
TTITLE7=Memphis Slim - Misery
TTITLE8=Memphis Slim - Fattening Frogs For Snakes
TTITLE9=Memphis Slim - Born With The Blues
TTITLE10=Memphis Slim - Whizzle Wham
TTITLE11=Champion Jack Dupree - How Long Blues
TTITLE12=Champion Jack Dupree - Blues Before Sunrise
TTITLE13=Champion Jack Dupree - In The Evening
TTITLE14=Champion Jack Dupree - Tomorrow Night
TTITLE15=Champion Jack Dupree - In The Dark
TTITLE16=Champion Jack Dupree - Fine And Mellow
TTITLE17=Champion Jack Dupree - Drinkin' Wine Spodie-Odie
TTITLE18=Eddie Boyd - Third Degree
TTITLE19=Eddie Boyd - Five Long Years
TTITLE20=Eddie Boyd - A Reel Good Feeling
TTITLE21=Jay McShann - Kansas City Blues
TTITLE22=Jay McShann - How Long Blues
TTITLE23=Jay McShann - Cherry Red
EXTD=
EXTT0=
EXTT1=
EXTT2=
EXTT3=
EXTT4=
EXTT5=
EXTT6=
EXTT7=
EXTT8=
EXTT9=
EXTT10=
EXTT11=
EXTT12=
EXTT13=
EXTT14=
EXTT15=
EXTT16=
EXTT17=
EXTT18=
EXTT19=
EXTT20=
EXTT21=
EXTT22=
EXTT23=
PLAYORDER=
